<?xml version="1.0" encoding="utf-8"?>
<!-- Generator: Adobe Illustrator 22.0.1, SVG Export Plug-In . SVG Version: 6.00 Build 0)  -->
<svg version="1.1" id="Layer_1" xmlns="http://www.w3.org/2000/svg" xmlns:xlink="http://www.w3.org/1999/xlink" x="0px" y="0px"
	 viewBox="0 0 256 256" style="enable-background:new 0 0 256 256;" xml:space="preserve">
<g>
	<defs>
		<rect id="SVGID_1_" width="256" height="256"/>
	</defs>
	<clipPath id="SVGID_2_">
		<use xlink:href="#SVGID_1_"  style="overflow:visible;"/>
	</clipPath>
	<g style="clip-path:url(#SVGID_2_);">
		<image style="overflow:visible;" width="512" height="512" xlink:href="674C5E03.png"  transform="matrix(1 0 0 1 -128 -128)">
		</image>
	</g>
</g>
<circle style="fill:#FF9CAD;" cx="128" cy="128" r="110"/>
<path style="fill:#FFB47D;" d="M26.32,85.98L71,104l10,8l35-12L85.84,26.38C58.95,37.54,37.45,59.07,26.32,85.98z"/>
<path style="fill:#FFD76A;" d="M18,128c0,14.96,2.99,29.22,8.4,42.22L77,149v-42L26.76,84.92C21.12,98.15,18,112.71,18,128z"/>
<path style="fill:#5DC74B;" d="M26.14,169.59c11.04,27,32.49,48.64,59.38,59.91L106,180l-30-30L26.14,169.59z"/>
<path style="fill:#73D1B8;" d="M108,175l-22.19,54.61c12.99,5.4,27.24,8.39,42.19,8.39c14.59,0,28.52-2.85,41.26-8.01L147,173
	L108,175z"/>
<path style="fill:#8AD7FA;" d="M229.83,169.66L174,146l-26,30l22.09,53.65C197.13,218.44,218.73,196.76,229.83,169.66z"/>
<path style="fill:#76BEFF;" d="M131,126l9,7l89.78,36.77c5.29-12.88,8.22-26.98,8.22-41.77c0-14.95-2.99-29.21-8.4-42.21L131,126z"
	/>
<path style="fill:#AB9CFF;" d="M128,128l101.8-41.72c-11.14-27.15-32.82-48.86-59.96-60.03L128,128z"/>
<circle style="fill:none;stroke:#793E52;stroke-width:4;stroke-miterlimit:10;" cx="128" cy="128" r="110"/>
<g>
	<g>
		<line style="fill:none;" x1="128" y1="128" x2="128" y2="238"/>
		<line style="fill:none;" x1="128" y1="128" x2="205.78" y2="205.78"/>
		<line style="fill:none;" x1="128" y1="128" x2="238" y2="128"/>
		<line style="fill:none;" x1="128" y1="128" x2="205.78" y2="50.22"/>
		<line style="fill:none;" x1="128" y1="128" x2="128" y2="18"/>
		<line style="fill:none;" x1="128" y1="128" x2="50.22" y2="50.22"/>
		<line style="fill:none;" x1="128" y1="128" x2="18" y2="128"/>
		<line style="fill:none;" x1="128" y1="128" x2="50.22" y2="205.78"/>
	</g>
	<g>
		<line style="fill:none;" x1="128" y1="128" x2="128" y2="238"/>
		<line style="fill:none;" x1="128" y1="128" x2="205.78" y2="205.78"/>
		<line style="fill:none;" x1="128" y1="128" x2="238" y2="128"/>
		<line style="fill:none;" x1="128" y1="128" x2="205.78" y2="50.22"/>
		<line style="fill:none;" x1="128" y1="128" x2="128" y2="18"/>
		<line style="fill:none;" x1="128" y1="128" x2="50.22" y2="50.22"/>
		<line style="fill:none;" x1="128" y1="128" x2="18" y2="128"/>
		<line style="fill:none;" x1="128" y1="128" x2="50.22" y2="205.78"/>
	</g>
	<g>
		<line style="fill:none;stroke:#793E52;stroke-width:2;stroke-miterlimit:10;" x1="128" y1="128" x2="170.1" y2="229.63"/>
		<line style="fill:none;stroke:#793E52;stroke-width:2;stroke-miterlimit:10;" x1="128" y1="128" x2="229.63" y2="170.1"/>
		<line style="fill:none;stroke:#793E52;stroke-width:2;stroke-miterlimit:10;" x1="128" y1="128" x2="229.63" y2="85.9"/>
		<line style="fill:none;stroke:#793E52;stroke-width:2;stroke-miterlimit:10;" x1="128" y1="128" x2="170.1" y2="26.37"/>
		<line style="fill:none;stroke:#793E52;stroke-width:2;stroke-miterlimit:10;" x1="128" y1="128" x2="85.9" y2="26.37"/>
		<line style="fill:none;stroke:#793E52;stroke-width:2;stroke-miterlimit:10;" x1="128" y1="128" x2="26.37" y2="85.9"/>
		<line style="fill:none;stroke:#793E52;stroke-width:2;stroke-miterlimit:10;" x1="128" y1="128" x2="26.37" y2="170.1"/>
		<line style="fill:none;stroke:#793E52;stroke-width:2;stroke-miterlimit:10;" x1="128" y1="128" x2="85.9" y2="229.63"/>
	</g>
</g>
<circle style="fill:#FFFFFF;stroke:#793E52;stroke-width:4;stroke-miterlimit:10;" cx="128" cy="128" r="65"/>
<g id="FRONT_2_">
	<path style="fill:#793E52;" d="M145.11,122.42c-0.59-0.4-1.4-0.24-1.81,0.36c-2.35,3.54-7.34,3.73-7.6,3.73c-0.05,0-0.07,0-0.12,0
		c-6.15,0-8.51,5.25-8.6,5.47c-0.29,0.67,0.02,1.43,0.67,1.71c0.17,0.07,0.36,0.12,0.52,0.12c0.5,0,0.97-0.29,1.19-0.78
		c0.02-0.05,1.64-3.66,5.8-3.9v6.72c-0.17,1.45-0.86,2.59-2.07,3.45c-1.26,0.88-2.95,1.33-5.01,1.33c-2.47,0-4.49-0.86-5.99-2.54
		c-1.52-1.69-2.28-4.09-2.28-7.18l0.02-7.41c0.12-2.73,0.86-4.89,2.26-6.44c1.52-1.69,3.52-2.54,5.99-2.54
		c2.07,0,3.75,0.45,5.01,1.33c1.26,0.88,1.97,2.09,2.09,3.66l0,0c0,0.05,0,0.12,0,0.17c0,0.9,0.74,1.64,1.64,1.64
		s1.64-0.74,1.64-1.64c0-0.05,0-0.12,0-0.17l0,0c-0.24-2.35-1.31-4.21-3.23-5.61s-4.32-2.09-7.22-2.09c-3.45,0-6.23,1.14-8.34,3.4
		c-2,2.11-3.04,4.89-3.16,8.32l0,0l0,0c0,0.24-0.02,0.48-0.02,0.71l0.02,6.68h-0.02c0,3.78,1.07,6.8,3.18,9.05
		c2.11,2.26,4.89,3.4,8.34,3.4c2.9,0,5.3-0.69,7.22-2.09c1.76-1.28,2.8-2.97,3.16-5.06l0.07-7.46c2.16-0.52,5.11-1.71,6.96-4.51
		C145.89,123.63,145.73,122.82,145.11,122.42z"/>
	<path style="fill:#793E52;" d="M100.6,56.43c-0.02,0-0.05,0-0.05,0"/>
	<path style="fill:#793E52;" d="M155.23,56.43"/>
	<path style="fill:#793E52;" d="M155.25,59.36L155.25,59.36"/>
	<path style="fill:#793E52;" d="M100.53,59.36c0.02,0,0.05,0,0.07,0"/>
	<polygon style="fill:#793E52;" points="127.9,198.08 127.93,198.08 127.93,198.08 	"/>
	<path style="fill:#793E52;" d="M154.9,54.06"/>
	<path style="fill:#793E52;" d="M127.9,205.94L127.9,205.94c0.02-0.02,0-0.02,0-0.05V205.94z"/>
	<path style="fill:#793E52;" d="M174.26,116.81c0.1,0.76,0.71,1.31,1.45,1.31c0.05,0,0.12,0,0.17,0c0.81-0.1,1.38-0.83,1.28-1.64
		c-1.47-12.83-10.24-21.91-10.62-22.29c-0.57-0.57-1.5-0.59-2.07-0.02c-0.57,0.57-0.59,1.5-0.02,2.07
		C164.55,96.33,172.91,105,174.26,116.81z"/>
	<path style="fill:#793E52;" d="M80.17,118.1c0.05,0,0.12,0,0.17,0c0.74,0,1.38-0.55,1.45-1.31c1.35-11.81,9.72-20.48,9.79-20.55
		c0.57-0.57,0.55-1.52-0.02-2.07c-0.57-0.57-1.52-0.57-2.07,0.02c-0.38,0.38-9.12,9.46-10.62,22.29
		C78.79,117.29,79.36,118,80.17,118.1z"/>
</g>
<circle style="fill:none;stroke:#793E52;stroke-width:4;stroke-miterlimit:10;" cx="128" cy="128" r="65"/>
<g id="Layer_6">
	<polygon style="fill:#5DC74B;" points="76,165 87,163 100,165 115,169 127,172 139,170 148,167 159,163 168,163 176,164 179,165 
		175,172 169,170 158,170 146,174 136,179 129,185 125,183 118,177 105,172 95,170 85,171 83,173 	"/>
</g>
<path style="fill:#793E52;" d="M188.97,104.46c0.39,0.08,0.77,0.12,1.15,0.16c-0.39-1.09-0.81-2.17-1.26-3.24
	c-0.46-0.1-0.94-0.23-1.44-0.39c-2.38-5.04-5.13-9.31-7.7-12.74l-1.16,0.88l1.16-0.9l-0.48-0.62c-0.83-1.4-1.37-2.81-1.67-4.22
	c-1.05-1.2-2.14-2.36-3.28-3.48c-0.11,3.31,0.69,6.45,2.43,9.34l0.62,0.83c5.39,7.2,11.71,18.34,12.93,32.22
	c-2.14-1.38-4.94-2.26-6.96-2.49c-1.52-12.02-6.87-22.88-14.78-31.27c0.33-0.69,0.52-1.47,0.52-2.28c0-1.09-0.33-2.11-0.88-2.95
	l4.41-5.03c-0.73-0.67-1.48-1.32-2.24-1.96l-4.42,5.05c-0.69-0.33-1.45-0.5-2.28-0.5c-1.07,0-2.04,0.31-2.88,0.83
	c-7.48-5.47-16.35-9.1-26-10.29c-0.24-1.73-0.71-4.21-1.43-6.63c7.63,0.86,15.59,3.47,23.69,7.82l0.31,0.21l0.17,0.1
	c2.35,1.19,4.87,1.78,7.48,1.78c0.98,0,1.98-0.09,2.99-0.26c-1.25-0.96-2.55-1.87-3.87-2.74c-1.69-0.11-3.42-0.53-5.13-1.38
	l-0.29-0.19l-0.14-0.1c-8.06-4.34-16.03-7.01-23.69-8.03h-5.71c1.09,2.23,2.23,6.16,2.67,9.12c0.12,0.83,0.19,1.59,0.19,2.21
	c0,0.26-0.02,0.5-0.07,0.74c-0.36,1.92-2.04,3.4-4.09,3.4s-3.73-1.47-4.09-3.4c-0.05-0.24-0.07-0.5-0.07-0.74
	c0.02-0.64,0.1-1.38,0.21-2.19c0.45-3.12,1.66-6.96,2.74-9.14H121v-0.01c-11.28,1.35-24,7.96-24.58,8.24c-1.5,0.75-3,1.18-4.49,1.35
	c-1.41,0.92-2.79,1.89-4.13,2.92c0.8,0.11,1.6,0.17,2.39,0.17c2.61,0,5.13-0.59,7.51-1.78c0.14-0.07,13.71-7.13,24.69-8.08
	c-0.71,2.4-1.19,4.89-1.43,6.61c-9.77,1.21-18.77,4.99-26.3,10.6c-0.81-0.48-1.71-0.74-2.71-0.74c-0.83,0-1.62,0.19-2.3,0.52
	l-4.51-5.14c-0.74,0.63-1.47,1.28-2.18,1.94l4.48,5.12c-0.55,0.83-0.88,1.85-0.88,2.92c0,0.78,0.17,1.52,0.48,2.21
	c-7.77,8.36-13,19.1-14.49,30.99c-2.11,0.33-4.92,1.24-7.03,2.59c0.83-12.55,5.04-23.41,12.83-33.05l0.12-0.17
	c1.61-2.66,2.42-5.57,2.46-8.63c-1.19,1.2-2.32,2.45-3.41,3.74c-0.33,1.11-0.8,2.18-1.42,3.22c-3.4,4.23-6.15,8.67-8.27,13.35
	c-0.23,0.07-0.44,0.12-0.66,0.18c-0.46,1.09-0.9,2.2-1.31,3.32c0.18-0.03,0.35-0.04,0.54-0.08c-2.57,6.89-3.85,14.3-3.9,22.38
	c0,0.02,0,0.02,0,0.05v0.02c0,0.07,0,0.14,0,0.19c0,14.59,5.13,28.92,14.45,40.35c8.25,10.12,19.46,17.63,31.89,21.46
	c-1.31-0.19-2.64-0.29-3.97-0.29c-0.26,0-0.51,0.02-0.77,0.02c4.97,1.93,10.22,3.27,15.68,3.94c-2.04-2.15-4.18-3.9-6.31-5.32
	l0.02-0.07c-0.07-0.02-0.14-0.05-0.21-0.05c-5.06-3.3-10.15-4.75-14.23-5.35c-1.92-1-3.83-2.11-5.66-3.33
	c8.96-0.26,17.08,2.78,24.26,9.08c2.06,1.8,3.74,3.65,5.1,5.33c1.72,0.13,3.45,0.22,5.21,0.22c1.81,0,3.61-0.09,5.38-0.24
	c1.35-1.66,3.03-3.5,5.07-5.29c7.13-6.27,15.23-9.31,24.12-9.1c-1.85,1.21-3.75,2.35-5.7,3.35c-9.39,1.43-16.04,6.04-20.53,10.74
	c5.32-0.67,10.44-1.97,15.29-3.83c-0.2,0-0.39-0.02-0.59-0.02c-1.26,0-2.52,0.1-3.73,0.26c7.22-2.21,13.95-5.66,20.08-10.22
	c7.91-5.92,14.49-13.64,19.01-22.31c4.75-9.12,7.15-18.99,7.15-29.25c0-0.07,0-0.12,0-0.19c0-0.02,0-0.02,0-0.05
	c0-0.02,0-0.05,0-0.07C193.46,118.43,191.61,110.92,188.97,104.46z M161.27,85.8c0.21-1.07,1.12-1.9,2.23-1.97c0.05,0,0.12,0,0.17,0
	c0.05,0,0.09,0,0.14,0c1.09,0.07,2.02,0.86,2.26,1.9c0.02,0.14,0.05,0.26,0.05,0.4c-0.02,0.02,0,0.07,0,0.12
	c0,1.07-0.71,2-1.69,2.33c-0.24,0.07-0.5,0.12-0.76,0.12c-0.07,0-0.17,0-0.24,0c-1.09-0.09-1.97-0.93-2.16-1.97
	c-0.02-0.14-0.05-0.31-0.05-0.45C161.22,86.11,161.24,85.97,161.27,85.8z M128.02,85.23l13.38,13.38c0.57,0.57,1.5,0.57,2.07,0
	c0.57-0.57,0.57-1.5,0-2.07L131.3,84.38c7.53,0.57,14.71,3.09,20.96,7.39c0.67,0.45,1.59,0.29,2.04-0.38
	c0.45-0.67,0.29-1.59-0.38-2.04c-7.22-4.97-15.64-7.72-24.43-7.98v-1.05c2.76-0.67,4.97-3.02,5.39-5.92
	c8.84,1.16,17.01,4.54,23.93,9.53c-0.36,0.71-0.55,1.5-0.55,2.35c0,1.07,0.31,2.04,0.86,2.9l-11.83,13.5
	c-0.55,0.62-0.48,1.54,0.14,2.07c0.29,0.24,0.62,0.36,0.97,0.36c0.4,0,0.81-0.17,1.12-0.5l11.81-13.47c0.71,0.36,1.5,0.55,2.35,0.55
	c1.09,0,2.09-0.33,2.92-0.88c7.37,7.89,12.33,18.01,13.81,29.23c-2.54,0.71-4.51,2.8-5.04,5.42l-1.69,0.07
	c-0.36-10.86-4.56-21.22-11.9-29.27c-0.55-0.59-1.47-0.64-2.07-0.1c-0.59,0.55-0.64,1.47-0.1,2.07
	c6.46,7.08,10.31,16.06,11.05,25.57l-15.8-15.75c-0.57-0.57-1.5-0.57-2.07,0c-0.57,0.57-0.57,1.5,0,2.07l16.97,16.97l-41.82,41.82
	l-41.82-41.82l16.82-16.82c0.57-0.57,0.57-1.5,0-2.07s-1.5-0.57-2.07,0l-15.61,15.61c0.83-10.81,5.68-20.53,13.07-27.61l7.37,8.41
	c0.29,0.33,0.69,0.5,1.12,0.5c0.33,0,0.69-0.12,0.97-0.36c0.62-0.55,0.67-1.47,0.14-2.07l-7.39-8.44
	c6.65-5.56,14.99-9.15,24.14-9.84l-12.55,12.43c-0.57,0.57-0.57,1.5,0,2.07c0.29,0.29,0.67,0.43,1.05,0.43s0.74-0.14,1.05-0.43
	L128.02,85.23z M173.67,128.43l1.71-0.07c0.57,2.54,2.49,4.59,5.01,5.28c-1.33,10.17-5.56,19.77-12.31,27.61
	c-3.26,0-7.03,0.38-11.31,1.31C166.76,154.43,173.27,142.19,173.67,128.43z M145.75,165.98c-0.95,0.38-1.62,0.69-1.95,0.83
	c-3.94,1.57-8.17,2.59-12.59,2.92l39.42-39.42C169.44,146.18,159.56,159.63,145.75,165.98z M85.25,130.31l39.42,39.42
	C103.67,168.14,86.84,151.31,85.25,130.31z M99.15,162.6c-4.3-0.95-8.08-1.33-11.36-1.35c-6.7-7.82-10.95-17.37-12.28-27.49
	c2.73-0.57,4.89-2.69,5.49-5.39l1.21,0.07C82.62,142.21,89.15,154.47,99.15,162.6z M96.75,84.16c6.96-5.11,15.21-8.55,24.17-9.77
	c0.4,2.95,2.66,5.32,5.56,5.89v1.02c-10.6,0.33-20.29,4.3-27.9,10.67l-2.09-2.4c0.55-0.83,0.88-1.85,0.88-2.92
	C97.37,85.76,97.13,84.9,96.75,84.16z M89.53,86.35c0-0.07,0.02-0.12,0.02-0.19c0.21-1.05,1.12-1.85,2.21-1.92c0.05,0,0.1,0,0.12,0
	c0.02,0,0.02,0,0.05,0c1.12,0,2.07,0.76,2.35,1.81c0.05,0.21,0.1,0.43,0.1,0.64c0,0.17-0.02,0.33-0.05,0.5
	c-0.21,1.05-1.12,1.85-2.21,1.92c-0.07,0-0.12,0-0.19,0c-0.31,0-0.62-0.07-0.88-0.17c-0.88-0.33-1.54-1.24-1.54-2.26
	C89.51,86.56,89.51,86.47,89.53,86.35z M88.94,91.15c0.88,0.57,1.9,0.9,3.02,0.9c0.83,0,1.62-0.19,2.3-0.52l2.11,2.42
	c-8.39,8.01-13.73,19.15-14.16,31.53l-1.19-0.07c-0.57-2.78-2.73-4.97-5.51-5.54C76.96,108.88,81.81,98.94,88.94,91.15z
	 M65.39,126.79c0.05-1.38,3.87-3.28,6.89-3.9c0.67-0.14,1.28-0.21,1.81-0.21c0.4,0,0.76,0.05,1.14,0.17
	c1.73,0.5,3.02,2.09,3.02,3.99s-1.28,3.49-3.02,3.99c-0.36,0.1-0.74,0.17-1.14,0.17c-0.55,0-1.16-0.07-1.81-0.21
	c-3.02-0.64-6.84-2.54-6.89-3.92C65.39,126.82,65.39,126.82,65.39,126.79z M65.53,131.16c2.11,1.38,4.94,2.28,7.03,2.61
	c1.26,10.07,5.25,19.63,11.57,27.61c-2.83,0.26-5.18,0.78-7.08,1.38C70.24,153.41,66.29,142.59,65.53,131.16z M126.48,191.38
	c-0.21,0.12-0.45,0.26-0.71,0.45c-1.54-1.97-3.56-4.28-6.11-6.51c-5.99-5.3-16.06-11.29-29.99-9.62v0.02
	c-1.47-1.14-2.9-2.33-4.25-3.59c2.38-0.48,6.39-0.95,11.41-0.38c13.19,1.47,23.31,9.01,29.65,15.33V191.38z M166.26,175.67
	c-13.88-1.62-23.9,4.35-29.89,9.62c-2.59,2.28-4.63,4.63-6.18,6.63c-0.29-0.19-0.55-0.38-0.78-0.5v-4.18
	c11.24-11.29,22.41-14.66,29.82-15.49c4.92-0.55,8.89-0.1,11.26,0.36C169.13,173.36,167.73,174.55,166.26,175.67z M172.96,169.61
	c-2-0.55-7.08-1.59-13.95-0.86c-7.46,0.81-18.44,3.99-29.65,14.35v-2.59c0-0.81-0.67-1.47-1.47-1.47c-0.81,0-1.47,0.67-1.47,1.47
	v2.45c-11.14-10.24-22.07-13.4-29.49-14.21c-7.03-0.76-12.19,0.38-14.07,0.9c-1.24-1.28-2.49-2.69-3.68-4.13
	c-0.07-0.1-0.14-0.17-0.21-0.26c7.15-1.97,14.97-0.93,20.46,0.38c6.63,1.59,11.48,3.9,11.52,3.92l0.02-0.05
	c5.25,2.09,10.98,3.26,16.97,3.26c5.96,0,11.67-1.14,16.89-3.23c0,0,0.05-0.02,0.14-0.07c0.62-0.26,1.26-0.52,1.85-0.81
	c2.02-0.83,5.42-2.07,9.5-3.04c5.54-1.33,13.38-2.38,20.53-0.38C175.62,166.76,174.34,168.21,172.96,169.61z M183.67,154.95
	c-1.43,2.73-3.07,5.35-4.87,7.87c-1.88-0.59-4.23-1.14-7.06-1.4c6.3-7.98,10.29-17.51,11.57-27.56c2.04-0.24,4.87-1.12,7.03-2.52
	C189.78,139.58,187.55,147.51,183.67,154.95z M190.49,126.84c-0.05,1.33-3.68,3.49-6.89,4.02c-0.45,0.07-0.9,0.12-1.33,0.12
	c-0.57,0-1.12-0.12-1.62-0.33c-1.5-0.64-2.54-2.11-2.54-3.83c0-1.71,1.05-3.18,2.54-3.83c0.5-0.21,1.05-0.33,1.62-0.33
	c0.43,0,0.88,0.05,1.33,0.12c3.21,0.52,6.82,2.69,6.89,3.99C190.49,126.79,190.49,126.82,190.49,126.84z"/>
<path style="fill:#5DC74B;stroke:#793E52;stroke-width:4;stroke-miterlimit:10;" d="M149,160.5c0,3.04-2.46,5.5-5.5,5.5
	s-5.5-2.46-5.5-5.5s5.5-11.5,5.5-11.5S149,157.46,149,160.5z"/>
<g>
	<g>
		<path style="fill:#FFD76A;" d="M193.79,126.37c-4.77,0-9.22-2.56-11.6-6.69c-1.79-3.09-2.26-6.7-1.34-10.15
			c0.92-3.45,3.14-6.33,6.23-8.12L224,80.1c2.03-1.17,4.34-1.79,6.67-1.79c4.77,0,9.21,2.56,11.6,6.69
			c1.79,3.09,2.26,6.7,1.34,10.15c-0.92,3.45-3.14,6.34-6.23,8.12l-36.91,21.31C198.43,125.75,196.12,126.37,193.79,126.37z"/>
		<path style="fill:#793E52;" d="M230.67,80.31L230.67,80.31c4.06,0,7.84,2.18,9.86,5.69c3.14,5.43,1.27,12.4-4.16,15.54
			l-36.91,21.31c-1.73,1-3.69,1.53-5.67,1.53c-4.06,0-7.84-2.18-9.87-5.69c-1.52-2.63-1.92-5.7-1.14-8.63
			c0.79-2.93,2.67-5.39,5.3-6.91l36.91-21.31C226.72,80.84,228.69,80.31,230.67,80.31 M230.67,76.31c-2.61,0-5.25,0.66-7.67,2.06
			l-36.91,21.31c-7.35,4.25-9.87,13.65-5.63,21v0c2.85,4.93,8.02,7.69,13.33,7.69c2.61,0,5.25-0.66,7.67-2.06L238.37,105
			c7.35-4.25,9.87-13.65,5.63-21l0,0C241.15,79.07,235.98,76.31,230.67,76.31L230.67,76.31z"/>
	</g>
	<g>
		<polygon style="fill:#FFFFFF;" points="150.68,142.36 146.79,135.64 152.89,121.16 196.94,95.72 210.31,118.89 166.26,144.32 		
			"/>
		<path style="fill:#793E52;" d="M196.21,98.46l11.37,19.7l-41.74,24.1l-13.94-1.75l-2.89-5l5.45-12.95L196.21,98.46 M197.67,92.99
			l-46.37,26.77l-6.74,16.02l4.88,8.44l17.24,2.17l46.37-26.77L197.67,92.99L197.67,92.99z"/>
	</g>
	<g>
		<path style="fill:#5DC74B;" d="M150.68,142.36l-3.88-6.72l6.1-14.48l18.81-10.86l1.9,1.6c2.04,1.72,3.27,4.05,3.57,6.74l0.26,2.43
			l0.48,3.26c0.53,3.63,2.29,6.79,5.08,9.14l0.84,0.71l-17.56,10.14L150.68,142.36z"/>
		<path style="fill:#793E52;" d="M171.48,112.73l0.82,0.7c1.64,1.38,2.63,3.26,2.87,5.43l0.26,2.43l0.01,0.07l0.01,0.07l0.47,3.19
			c0.52,3.54,2.07,6.69,4.51,9.21l-14.59,8.42l-13.94-1.75l-2.89-5l5.45-12.95L171.48,112.73 M171.91,107.86l-20.61,11.9
			l-6.74,16.02l4.88,8.44l17.24,2.17l20.61-11.9l-3.02-2.55c-2.41-2.03-3.93-4.77-4.39-7.9l-0.47-3.19l-0.26-2.43
			c-0.35-3.2-1.83-6-4.26-8.05L171.91,107.86L171.91,107.86z"/>
	</g>
	
		<line style="fill:#FFD76A;stroke:#793E52;stroke-width:4;stroke-linecap:round;stroke-miterlimit:10;" x1="192.39" y1="87.81" x2="214.89" y2="126.78"/>
</g>
</svg>
